<svg id="Layer_1" data-name="Layer 1" xmlns="http://www.w3.org/2000/svg" xmlns:xlink="http://www.w3.org/1999/xlink" width="26" height="26" viewBox="0 0 26 26"><defs><style>.cls-1{fill:url(#era);}.cls-2{fill:url(#era-2);}</style><linearGradient id="era" x1="1.72" y1="8.93" x2="22.17" y2="8.93" gradientUnits="userSpaceOnUse"><stop offset="0" stop-color="#c0272d"/><stop offset="1" stop-color="#f05a26"/></linearGradient><linearGradient id="era-2" x1="4.11" y1="17.4" x2="24.26" y2="17.4" xlink:href="#era"/></defs><title>2</title><path class="cls-1" d="M22.17,7.89,19.23,9.11a7.34,7.34,0,0,0-13.44,2.5H7L5.66,13.37l-1.55,2-1.6-2.5-.79-1.24H2.6A10.5,10.5,0,0,1,22.17,7.89Z"/><path class="cls-2" d="M24.26,14.68h-.9A10.49,10.49,0,0,1,4.11,18.57l3-1.22a7.34,7.34,0,0,0,13.07-2.67H18.91l1.44-1.76,1.29-1.59h0l1.82,2.34Z"/></svg>