<svg xmlns="http://www.w3.org/2000/svg" xmlns:xlink="http://www.w3.org/1999/xlink" width="86" height="86" viewBox="0 0 86 86">
  <defs>
    <clipPath id="clip-LEARN">
      <rect width="86" height="86"/>
    </clipPath>
  </defs>
  <g id="LEARN" clip-path="url(#clip-LEARN)">
    <rect width="86" height="86" fill="#fff"/>
    <g id="Group_5" data-name="Group 5" transform="translate(-618 -703)">
      <circle id="Ellipse_71" data-name="Ellipse 71" cx="43" cy="43" r="43" transform="translate(618.493 703.415)" fill="#fdfdfd" opacity="0.8"/>
      <g id="Group_2709" data-name="Group 2709" transform="translate(639.681 711.874)">
        <g id="Group_2703" data-name="Group 2703" transform="translate(0 0)">
          <path id="Path_6637" data-name="Path 6637" d="M611.236,56.128V101.18l24.55-14.152a1.494,1.494,0,0,0,.748-1.295V43.108a.9.9,0,0,0-1.355-.783Z" transform="translate(-611.236 -42.204)" fill="#fa676d"/>
          <path id="Path_6638" data-name="Path 6638" d="M611.488,56.361l23.944-13.8a.89.89,0,0,1,1.143.218.9.9,0,0,0-1.283-.451l-23.943,13.8V101.18l.139-.081Z" transform="translate(-611.349 -42.204)" fill="#72b5e8"/>
          <g id="Group_2702" data-name="Group 2702" transform="translate(0.963 1.576)">
            <path id="Path_6639" data-name="Path 6639" d="M647.968,67.781v41.1l-3.112-2.155V65.649Z" transform="translate(-644.855 -52.425)" fill="#d1ebff"/>
            <path id="Path_6640" data-name="Path 6640" d="M608.611,57.925l3.112,2.131,22.88-13.2L631.449,44.7Z" transform="translate(-608.611 -44.7)" fill="#fff"/>
          </g>
          <path id="Path_6641" data-name="Path 6641" d="M605.584,59.8v45.052L630.134,90.7a1.5,1.5,0,0,0,.748-1.295V46.783A.9.9,0,0,0,629.528,46Z" transform="translate(-602.016 -43.559)" fill="#72b5e8"/>
          <path id="Path_6642" data-name="Path 6642" d="M648.948,66.607v45.051a4.78,4.78,0,0,1-3.779-2.521l-.015-.029V64.288l.162.009A4.13,4.13,0,0,0,648.948,66.607Z" transform="translate(-645.062 -50.347)" fill="#72b5e8"/>
          <path id="Path_6643" data-name="Path 6643" d="M605.264,60.049V105.1l24.55-14.152a1.494,1.494,0,0,0,.748-1.294V47.029a.9.9,0,0,0-1.354-.783Z" transform="translate(-601.494 -43.649)" fill="#ff6e3f"/>
          <path id="Path_6644" data-name="Path 6644" d="M649.1,66.707v45.052a4.783,4.783,0,0,1-3.779-2.521l-.014-.03V64.183h0A4.79,4.79,0,0,0,649.1,66.707Z" transform="translate(-645.302 -50.308)" fill="#f07167"/>
        </g>
        <g id="Group_2705" data-name="Group 2705" transform="translate(5.873 2.93)">
          <path id="Path_6645" data-name="Path 6645" d="M601.932,60.768V105.82l24.551-14.152a1.493,1.493,0,0,0,.747-1.294V47.749a.9.9,0,0,0-1.354-.782Z" transform="translate(-601.932 -46.845)" fill="#0ba19f"/>
          <path id="Path_6646" data-name="Path 6646" d="M602.185,61l23.944-13.8a.89.89,0,0,1,1.143.218.9.9,0,0,0-1.283-.451l-23.944,13.8V105.82l.14-.08Z" transform="translate(-602.045 -46.845)" fill="#3ecfcd"/>
          <g id="Group_2704" data-name="Group 2704" transform="translate(0.963 1.576)">
            <path id="Path_6647" data-name="Path 6647" d="M635.925,74.794v41.1l-7.8-4.528V70.29Z" transform="translate(-628.124 -57.065)" fill="#d1ebff"/>
            <path id="Path_6648" data-name="Path 6648" d="M591.88,62.565l7.8,4.5,22.88-13.2-7.842-4.528Z" transform="translate(-591.88 -49.34)" fill="#fff"/>
          </g>
          <path id="Path_6649" data-name="Path 6649" d="M588.852,68.2v45.052L613.4,99.1a1.5,1.5,0,0,0,.748-1.294V55.182A.9.9,0,0,0,612.8,54.4Z" transform="translate(-580.595 -49.585)" fill="#3ecfcd"/>
          <path id="Path_6650" data-name="Path 6650" d="M636.9,73.619v45.052l-2.417-.407a8.3,8.3,0,0,1-6.051-4.486l-.014-.03V68.929l.162.008a7.772,7.772,0,0,0,5.9,4.277Z" transform="translate(-628.329 -54.988)" fill="#3ecfcd"/>
          <path id="Path_6651" data-name="Path 6651" d="M588.532,68.448V113.5l24.551-14.152a1.493,1.493,0,0,0,.748-1.294V55.428a.9.9,0,0,0-1.355-.783Z" transform="translate(-580.073 -49.676)" fill="#0ba19f"/>
          <path id="Path_6652" data-name="Path 6652" d="M637.053,73.721v45.052l-2.417-.408a8.3,8.3,0,0,1-6.05-4.486l-.015-.029V68.824h0a8.3,8.3,0,0,0,6.061,4.491Z" transform="translate(-628.571 -54.949)" fill="#0fbab8"/>
        </g>
        <g id="Group_2708" data-name="Group 2708" transform="translate(16.48 8.325)">
          <path id="Path_6653" data-name="Path 6653" d="M585.129,69.316v45.052l24.551-14.152a1.5,1.5,0,0,0,.748-1.295V56.3a.9.9,0,0,0-1.355-.783Z" transform="translate(-585.129 -55.392)" fill="#03336e"/>
          <path id="Path_6654" data-name="Path 6654" d="M585.383,69.549l23.943-13.8a.89.89,0,0,1,1.143.218.9.9,0,0,0-1.282-.451l-23.944,13.8v45.052l.14-.081Z" transform="translate(-585.243 -55.392)" fill="#3f92d1"/>
          <g id="Group_2706" data-name="Group 2706" transform="translate(0.963 1.576)">
            <path id="Path_6655" data-name="Path 6655" d="M620.762,81.665v41.1l-4.994-2.851V78.838Z" transform="translate(-615.767 -65.613)" fill="#d1ebff"/>
            <path id="Path_6656" data-name="Path 6656" d="M579.523,71.113l4.994,2.827,22.88-13.2-5.036-2.851Z" transform="translate(-579.523 -57.888)" fill="#fff"/>
          </g>
          <path id="Path_6657" data-name="Path 6657" d="M576.5,74.094v45.052l24.551-14.152a1.494,1.494,0,0,0,.748-1.295V61.074a.9.9,0,0,0-1.354-.782Z" transform="translate(-571.046 -57.153)" fill="#3f92d1"/>
          <path id="Path_6658" data-name="Path 6658" d="M621.742,80.49v45.052s-4.478-.84-5.661-3.218l-.015-.029V77.476l.162.009C617.413,79.867,621.742,80.49,621.742,80.49Z" transform="translate(-615.973 -63.535)" fill="#3f92d1"/>
          <path id="Path_6659" data-name="Path 6659" d="M576.176,74.34v45.052l24.551-14.152a1.494,1.494,0,0,0,.747-1.295V61.32a.9.9,0,0,0-1.354-.783Z" transform="translate(-570.523 -57.244)" fill="#03336e"/>
          <path id="Path_6661" data-name="Path 6661" d="M621.89,80.592v45.052s-4.478-.84-5.661-3.218l-.015-.029V77.371h0C617.4,79.753,621.89,80.592,621.89,80.592Z" transform="translate(-616.214 -63.496)" fill="#084c94"/>
        </g>
      </g>
    </g>
  </g>
</svg>
